<svg width="183" height="80" viewBox="0 0 183 80" fill="none" xmlns="http://www.w3.org/2000/svg">
<g clip-path="url(#clip0_835_30)">
<path d="M64.926 63.1432H60.296V54.6974H52.2327V63.1432H47.6V43.1758H52.2327V51.5235H60.296V43.1758H64.926V63.1432Z" fill="#00A79D"/>
<path d="M74.243 48.7137C75.1178 48.7042 75.9872 48.8527 76.8098 49.1523C77.5594 49.4292 78.2415 49.8639 78.8107 50.4274C79.3866 51.0089 79.8325 51.7073 80.1185 52.4761C80.4449 53.3548 80.6047 54.2872 80.5896 55.2251C80.5929 55.4854 80.5794 55.7457 80.549 56.0043C80.5314 56.1733 80.4808 56.3372 80.4001 56.4865C80.3323 56.5997 80.2282 56.6862 80.105 56.7317C79.954 56.7819 79.7955 56.805 79.6366 56.7998H71.492C71.6274 57.9877 71.9884 58.8486 72.5751 59.3826C73.1929 59.9326 73.9982 60.2206 74.8224 60.1863C75.2517 60.1952 75.6795 60.1345 76.0896 60.0065C76.4152 59.901 76.7313 59.7679 77.0345 59.6087L77.7981 59.2137C78.0229 59.0955 78.2728 59.0338 78.5264 59.0339C78.6745 59.0252 78.8224 59.0546 78.956 59.1195C79.0896 59.1843 79.2046 59.2824 79.29 59.4044L80.5165 60.9246C80.1097 61.4025 79.6342 61.8167 79.1059 62.1533C78.6191 62.4595 78.0984 62.7073 77.5544 62.8917C77.0362 63.0676 76.502 63.1917 75.9596 63.2622C75.456 63.3289 74.9486 63.3635 74.4406 63.3657C73.4904 63.372 72.5468 63.2068 71.6545 62.878C70.8037 62.5633 70.0287 62.0713 69.3801 61.4341C68.7072 60.7556 68.1833 59.9425 67.8422 59.0475C67.4461 57.9884 67.254 56.8632 67.2763 55.7318C67.2717 54.8096 67.436 53.8943 67.7609 53.0319C68.0719 52.193 68.5501 51.427 69.1661 50.7809C69.7822 50.1348 70.523 49.6223 71.3431 49.2749C72.2613 48.89 73.2484 48.6989 74.243 48.7137ZM74.3242 51.6479C73.9781 51.6271 73.6314 51.6778 73.3054 51.7968C72.9795 51.9158 72.6812 52.1006 72.4289 52.3399C71.9297 52.894 71.6154 53.5913 71.5299 54.3342H76.8044C76.8051 54.0011 76.7614 53.6694 76.6744 53.348C76.5926 53.0362 76.4489 52.7442 76.252 52.4898C76.0454 52.2299 75.7823 52.0212 75.4831 51.8795C75.1191 51.7152 74.7229 51.636 74.3242 51.6479Z" fill="#00A79D"/>
<path d="M92.7658 63.1429C92.4549 63.1603 92.1443 63.1043 91.8587 62.9794C91.6142 62.8178 91.434 62.5747 91.3497 62.2928L91.0492 61.5136C90.6945 61.8133 90.356 62.0803 90.0284 62.3065C89.7085 62.5318 89.3686 62.727 89.013 62.8895C88.6568 63.0531 88.2822 63.1729 87.8975 63.2464C87.4637 63.3285 87.023 63.3678 86.5816 63.3635C85.9861 63.3713 85.3931 63.2849 84.8243 63.1074C84.3301 62.9555 83.8733 62.7002 83.4841 62.3582C83.1096 62.0201 82.8178 61.5996 82.6312 61.1295C82.4237 60.5875 82.3226 60.0102 82.3333 59.4294C82.342 58.8894 82.4725 58.3584 82.7151 57.8765C83.0208 57.2846 83.4766 56.7845 84.0364 56.4271C84.8142 55.9248 85.6698 55.5565 86.568 55.3373C87.8824 55.0139 89.2334 54.8655 90.5862 54.896V54.2884C90.5862 53.4493 90.4165 52.8427 90.0771 52.4685C89.8892 52.2759 89.6624 52.1261 89.4121 52.0293C89.1617 51.9324 88.8936 51.8908 88.6258 51.9073C88.2107 51.8947 87.7963 51.9508 87.3993 52.0735C87.1056 52.1716 86.8211 52.2956 86.5491 52.444C86.2973 52.5802 86.0563 52.7164 85.818 52.8118C85.553 52.929 85.2654 52.9857 84.976 52.978C84.7119 52.9859 84.4519 52.9117 84.2314 52.7655C84.0324 52.6289 83.8675 52.4481 83.7494 52.2369L82.9859 50.9074C83.8152 50.1642 84.7797 49.5897 85.8262 49.2155C86.9016 48.8429 88.0327 48.6586 89.1701 48.6706C89.9597 48.6585 90.7441 48.801 91.4797 49.0902C92.1362 49.3479 92.7299 49.7446 93.2207 50.2535C93.7061 50.7616 94.0797 51.3668 94.3173 52.0299C94.578 52.7498 94.7074 53.5113 94.699 54.2775V63.1565L92.7658 63.1429ZM87.9164 60.5546C88.4082 60.5648 88.8963 60.4662 89.3461 60.2658C89.8114 60.0323 90.2314 59.7167 90.5862 59.3341V57.3888C89.8885 57.3766 89.1913 57.4313 88.504 57.5523C88.0558 57.6315 87.6204 57.7718 87.2098 57.9691C86.9405 58.0911 86.7113 58.2876 86.5491 58.5358C86.4264 58.7444 86.3628 58.9828 86.365 59.2251C86.365 59.7155 86.4949 60.0588 86.7603 60.255C87.1035 60.4776 87.509 60.5827 87.9164 60.5546Z" fill="#00A79D"/>
<path d="M102.056 42.627V63.142H97.8318V42.627H102.056Z" fill="#00A79D"/>
<path d="M110.417 63.3629C109.812 63.3743 109.21 63.2746 108.641 63.0686C108.153 62.8892 107.711 62.6036 107.346 62.2322C106.985 61.8593 106.708 61.4123 106.534 60.9218C106.347 60.3714 106.255 59.7926 106.263 59.2108V51.8575H105.064C104.958 51.8596 104.853 51.8397 104.756 51.7989C104.658 51.7581 104.57 51.6973 104.497 51.6205C104.424 51.5437 104.368 51.4524 104.331 51.3526C104.295 51.2527 104.28 51.1463 104.287 51.0402V49.3837L106.534 48.9451L107.365 45.4769C107.476 45.0383 107.782 44.8203 108.291 44.8203H110.498V48.9724H113.931V51.8575H110.498V58.9166C110.487 59.2079 110.57 59.4949 110.736 59.7339C110.816 59.8397 110.921 59.9243 111.041 59.9804C111.16 60.0364 111.292 60.0621 111.424 60.0554C111.556 60.0591 111.687 60.0435 111.814 60.0091C111.907 59.9811 111.998 59.9446 112.085 59.9001C112.163 59.8565 112.236 59.8211 112.304 59.7884C112.379 59.7564 112.46 59.7406 112.542 59.7421C112.651 59.7373 112.758 59.7679 112.848 59.8293C112.942 59.9068 113.022 59.9987 113.086 60.1017L114.367 62.1151C113.813 62.5304 113.191 62.844 112.529 63.0414C111.844 63.2512 111.133 63.3595 110.417 63.3629Z" fill="#00A79D"/>
<path d="M116.355 63.142V42.627H120.578V50.1791C121.076 49.747 121.634 49.3891 122.233 49.1166C122.907 48.8308 123.633 48.6925 124.364 48.7106C125.068 48.6973 125.767 48.8357 126.413 49.1166C126.992 49.3734 127.506 49.7569 127.919 50.239C128.34 50.7412 128.655 51.3242 128.845 51.9527C129.059 52.6514 129.165 53.3792 129.159 54.1105V63.142H124.935V54.1105C124.973 53.5265 124.805 52.9477 124.461 52.4758C124.287 52.2771 124.069 52.1212 123.826 52.0201C123.582 51.9191 123.319 51.8755 123.056 51.8928C122.603 51.8905 122.155 51.994 121.748 52.1952C121.322 52.4109 120.928 52.6861 120.578 53.0125V63.1393L116.355 63.142Z" fill="#00A79D"/>
<path d="M139.754 60.3493C140.241 60.3557 140.727 60.3119 141.205 60.2185C141.577 60.1467 141.94 60.0343 142.288 59.8834C142.561 59.7633 142.823 59.6193 143.071 59.453C143.287 59.3004 143.48 59.156 143.642 59.0198C143.805 58.8835 143.951 58.7718 144.078 58.6847C144.189 58.6029 144.322 58.5573 144.46 58.5539C144.554 58.5524 144.648 58.5759 144.731 58.622C144.794 58.6622 144.853 58.7088 144.907 58.7609L146.147 60.3084C145.318 61.2753 144.291 62.0497 143.136 62.5779C141.881 63.1224 140.525 63.3909 139.158 63.3653C138.048 63.3848 136.947 63.1627 135.931 62.7141C135.009 62.2977 134.19 61.6819 133.532 60.9105C132.861 60.1106 132.355 59.1845 132.043 58.1861C131.692 57.0745 131.519 55.914 131.531 54.7478C131.525 53.6562 131.648 52.5678 131.899 51.5058C132.13 50.5247 132.482 49.5765 132.947 48.6832C133.384 47.84 133.931 47.0586 134.572 46.3593C135.196 45.6836 135.906 45.0937 136.683 44.6048C137.46 44.1181 138.302 43.7447 139.183 43.4959C140.093 43.2375 141.034 43.1082 141.98 43.1118C142.639 43.1053 143.298 43.1719 143.943 43.3106C144.498 43.4258 145.037 43.6087 145.548 43.8555C146.015 44.083 146.45 44.3706 146.842 44.711C147.226 45.0463 147.573 45.4206 147.879 45.828L146.653 47.3074C146.56 47.4182 146.453 47.5154 146.333 47.5962C146.196 47.6819 146.037 47.7246 145.876 47.7188C145.661 47.7128 145.457 47.6251 145.305 47.4736C145.086 47.2781 144.857 47.0962 144.617 46.9287C144.28 46.7025 143.916 46.5194 143.534 46.3838C142.974 46.2021 142.386 46.1191 141.798 46.1386C140.89 46.1304 139.991 46.3288 139.169 46.7189C138.354 47.115 137.633 47.6838 137.057 48.3863C136.429 49.1595 135.951 50.045 135.649 50.9963C135.294 52.105 135.121 53.2644 135.137 54.4291C135.126 55.2685 135.243 56.1047 135.484 56.9083C135.686 57.5827 136.012 58.213 136.445 58.7664C136.837 59.2606 137.335 59.6592 137.902 59.9325C138.48 60.2109 139.113 60.3534 139.754 60.3493Z" fill="#00A79D"/>
<path d="M158.645 63.1431H156.874C156.72 63.1601 156.563 63.1433 156.415 63.0939C156.268 63.0446 156.132 62.9638 156.019 62.857C155.851 62.6527 155.764 62.3942 155.772 62.1296L155.88 60.2225C155.335 61.1117 154.629 61.8899 153.798 62.5165C153.062 63.068 152.168 63.3644 151.25 63.3611C150.741 63.3647 150.236 63.2568 149.772 63.045C149.306 62.8288 148.895 62.5071 148.573 62.1051C148.204 61.6424 147.928 61.1123 147.76 60.544C147.551 59.8306 147.451 59.0891 147.465 58.3454C147.466 55.8863 148.396 53.5195 150.067 51.725C151.164 50.5484 152.554 49.6894 154.093 49.2376C154.901 49.001 155.738 48.8836 156.579 48.8888C157.213 48.888 157.847 48.9335 158.474 49.0251C159.11 49.1178 159.733 49.2832 160.332 49.5182L158.645 63.1431ZM152.572 60.5767C152.964 60.5644 153.342 60.4302 153.655 60.1925C154.049 59.8983 154.392 59.539 154.667 59.13C155.014 58.6282 155.312 58.0935 155.556 57.5335C155.837 56.8925 156.073 56.2325 156.262 55.5583L156.804 51.3109C156.578 51.2847 156.351 51.2711 156.124 51.27C155.393 51.2646 154.671 51.4435 154.026 51.7904C153.379 52.1404 152.808 52.6186 152.35 53.1962C151.864 53.8111 151.489 54.5062 151.24 55.2504C150.97 56.0467 150.834 56.8829 150.839 57.7242C150.839 58.7104 150.993 59.4324 151.302 59.8901C151.436 60.1058 151.624 60.2825 151.846 60.4029C152.069 60.5233 152.319 60.5832 152.572 60.5767Z" fill="#00A79D"/>
<path d="M161.764 63.1445L163.467 49.07H165.17C165.457 49.0565 165.741 49.1326 165.983 49.288C166.089 49.3688 166.173 49.4754 166.228 49.5978C166.282 49.7202 166.305 49.8545 166.294 49.9882C166.294 50.0535 166.294 50.1625 166.294 50.3178C166.294 50.4731 166.278 50.7183 166.267 51.0507C166.256 51.3831 166.24 51.8517 166.213 52.4565C166.678 51.4936 167.315 50.6246 168.092 49.8928C168.663 49.3347 169.421 49.012 170.217 48.9883C170.607 48.9921 170.992 49.0755 171.349 49.2335L170.735 52.4701C170.327 52.2873 169.887 52.1891 169.44 52.1813C168.633 52.1813 167.926 52.57 167.318 53.3474C166.709 54.1248 166.209 55.3399 165.817 56.9927L165.084 63.1445H161.764Z" fill="#00A79D"/>
<path d="M182.919 52.3452C182.926 52.9423 182.797 53.533 182.542 54.0725C182.231 54.6574 181.762 55.1419 181.189 55.4701C180.371 55.9527 179.487 56.3108 178.565 56.5327C177.18 56.879 175.771 57.115 174.349 57.2383V57.4181C174.349 59.6267 175.281 60.7319 177.143 60.7338C177.789 60.7431 178.428 60.6071 179.014 60.336C179.236 60.2341 179.446 60.1099 179.643 59.9655C179.827 59.8292 180 59.7066 180.16 59.5949C180.31 59.4938 180.466 59.4028 180.628 59.3225C180.785 59.2456 180.957 59.2065 181.132 59.2081C181.245 59.2086 181.357 59.2337 181.459 59.2816C181.567 59.3328 181.66 59.4106 181.73 59.5078L182.588 60.5512C182.144 61.0016 181.671 61.4221 181.172 61.8099C180.732 62.1532 180.257 62.4474 179.754 62.6872C179.268 62.918 178.756 63.0882 178.229 63.1939C177.651 63.3094 177.062 63.3651 176.472 63.3601C175.711 63.3711 174.956 63.2284 174.252 62.9406C173.607 62.6752 173.026 62.2739 172.549 61.7636C172.063 61.2326 171.69 60.6079 171.452 59.9273C171.185 59.1541 171.054 58.3401 171.065 57.5216C171.064 56.7885 171.144 56.0575 171.303 55.3421C171.457 54.6421 171.688 53.9614 171.991 53.3124C172.287 52.6811 172.658 52.0882 173.096 51.5469C173.522 51.0149 174.018 50.5437 174.571 50.1466C175.126 49.7519 175.737 49.4425 176.383 49.2284C177.067 49.0065 177.783 48.8961 178.503 48.9015C179.159 48.8881 179.812 48.9943 180.431 49.2148C180.934 49.3994 181.4 49.6766 181.803 50.0322C182.154 50.3412 182.436 50.722 182.629 51.1492C182.808 51.523 182.907 51.9305 182.919 52.3452ZM178.316 51.2554C177.878 51.2487 177.445 51.3419 177.049 51.5279C176.651 51.7207 176.294 51.9879 175.995 52.3152C175.667 52.6773 175.394 53.0857 175.183 53.5276C174.947 54.02 174.765 54.5371 174.642 55.0696C175.553 54.9539 176.457 54.7847 177.349 54.5629C177.903 54.4307 178.438 54.2283 178.941 53.9608C179.252 53.8036 179.512 53.5608 179.691 53.2606C179.814 53.0146 179.877 52.743 179.875 52.4678C179.874 52.3216 179.844 52.1771 179.786 52.0428C179.726 51.8932 179.634 51.7591 179.515 51.6505C179.376 51.5256 179.214 51.4285 179.039 51.3644C178.811 51.2813 178.569 51.2425 178.327 51.25L178.316 51.2554Z" fill="#00A79D"/>
<path d="M154.535 42.0816C154.517 42.112 154.495 42.1389 154.467 42.1606C154.441 42.1783 154.409 42.1869 154.378 42.1851C154.328 42.1805 154.281 42.1605 154.242 42.1279C154.179 42.0806 154.113 42.0369 154.045 41.9971C153.954 41.9429 153.858 41.8991 153.758 41.8663C153.493 41.7827 153.21 41.7827 152.945 41.8663C152.839 41.9018 152.741 41.9572 152.656 42.0298C152.581 42.0979 152.522 42.1815 152.482 42.275C152.442 42.3715 152.422 42.4754 152.423 42.5801C152.418 42.7037 152.454 42.8254 152.526 42.9261C152.598 43.023 152.69 43.1029 152.797 43.1604C152.918 43.2296 153.046 43.2862 153.178 43.3293L153.614 43.4792C153.763 43.5284 153.908 43.5856 154.05 43.6508C154.188 43.7118 154.316 43.7936 154.429 43.8933C154.544 43.9912 154.636 44.1129 154.7 44.2502C154.773 44.4146 154.808 44.5934 154.803 44.7733C154.804 44.9828 154.766 45.1907 154.692 45.3863C154.621 45.5753 154.51 45.7465 154.367 45.8876C154.218 46.0349 154.04 46.1482 153.844 46.22C153.619 46.3051 153.381 46.3467 153.14 46.3426C152.84 46.3456 152.542 46.2863 152.266 46.1682C152.01 46.0569 151.78 45.8947 151.589 45.6914L151.781 45.3727C151.803 45.35 151.83 45.3323 151.86 45.3209C151.886 45.3038 151.917 45.2944 151.949 45.2937C152.012 45.2999 152.07 45.3279 152.114 45.3727C152.19 45.4341 152.268 45.4914 152.35 45.5443C152.456 45.6139 152.57 45.6723 152.688 45.7187C152.844 45.7736 153.008 45.7994 153.173 45.795C153.317 45.7973 153.461 45.7752 153.598 45.7296C153.715 45.69 153.823 45.627 153.915 45.5443C154.001 45.4629 154.069 45.3646 154.115 45.2555C154.162 45.1378 154.185 45.0118 154.183 44.885C154.19 44.7535 154.154 44.6233 154.08 44.5145C154.009 44.4142 153.916 44.3313 153.809 44.272C153.69 44.2027 153.564 44.147 153.433 44.1058L152.997 43.9669C152.848 43.92 152.703 43.8645 152.561 43.8007C152.422 43.7414 152.294 43.6595 152.182 43.5582C152.067 43.4536 151.975 43.3266 151.911 43.185C151.774 42.8424 151.774 42.4596 151.911 42.117C151.979 41.9521 152.079 41.8029 152.206 41.6783C152.344 41.5456 152.507 41.4418 152.685 41.3732C152.894 41.2925 153.117 41.2527 153.341 41.256C153.599 41.2539 153.856 41.2992 154.099 41.3895C154.323 41.4742 154.527 41.605 154.697 41.7737L154.535 42.0816Z" fill="#006699"/>
<path d="M161.122 46.2908H160.605C160.553 46.2926 160.501 46.2763 160.459 46.2445C160.422 46.2145 160.393 46.175 160.375 46.1301L159.912 44.9259H157.689L157.223 46.1383C157.208 46.1826 157.18 46.2215 157.142 46.25C157.101 46.2829 157.049 46.3003 156.996 46.299H156.479L158.461 41.3105H159.14L161.122 46.2908ZM157.873 44.4382H159.723L158.946 42.4085C158.886 42.2558 158.836 42.0992 158.797 41.9399L158.723 42.2123C158.696 42.2941 158.675 42.3622 158.65 42.4248L157.873 44.4382Z" fill="#006699"/>
<path d="M162.089 41.2993H162.631C162.683 41.2957 162.734 41.3123 162.774 41.3456C162.812 41.3756 162.841 41.4151 162.858 41.4601L164.258 44.9773C164.292 45.062 164.322 45.1483 164.347 45.2361C164.374 45.3288 164.399 45.4241 164.426 45.5249C164.445 45.4241 164.469 45.3288 164.493 45.2361C164.514 45.1477 164.543 45.0612 164.577 44.9773L165.972 41.4601C165.989 41.417 166.017 41.3794 166.053 41.3511C166.094 41.3161 166.146 41.2976 166.199 41.2993H166.741L164.721 46.2878H164.117L162.089 41.2993Z" fill="#006699"/>
<path d="M169.547 46.2912H168.874V41.3027H169.547V46.2912Z" fill="#006699"/>
<path d="M172.735 41.3229C172.774 41.3473 172.808 41.3787 172.836 41.4156L175.706 45.1753C175.706 45.1154 175.706 45.0554 175.692 44.9982C175.679 44.941 175.692 44.8865 175.692 44.8347V41.293H176.28V46.2814H175.941C175.894 46.2824 175.848 46.2721 175.806 46.2514C175.765 46.2294 175.729 46.1976 175.703 46.1588L172.833 42.4045C172.833 42.4618 172.833 42.519 172.833 42.5735C172.833 42.6279 172.833 42.6797 172.833 42.726V46.2814H172.245V41.3011H172.592C172.641 41.2972 172.69 41.3047 172.735 41.3229Z" fill="#006699"/>
<path d="M181.08 45.7973C181.203 45.7984 181.326 45.792 181.449 45.7782C181.556 45.7685 181.662 45.7494 181.765 45.721C181.858 45.6974 181.948 45.6664 182.036 45.6284C182.123 45.5929 182.209 45.5521 182.307 45.5058V44.416H181.538C181.519 44.4172 181.499 44.4145 181.481 44.408C181.463 44.4014 181.446 44.3911 181.432 44.3778C181.419 44.3663 181.409 44.352 181.403 44.3359C181.396 44.3199 181.393 44.3025 181.394 44.2852V43.9011H182.916V45.8082C182.793 45.8975 182.662 45.9767 182.526 46.0452C182.387 46.1141 182.242 46.1706 182.093 46.2141C181.931 46.2603 181.767 46.294 181.6 46.3149C181.411 46.3375 181.22 46.3485 181.029 46.3476C180.691 46.3512 180.355 46.2882 180.041 46.1624C179.75 46.0432 179.486 45.8652 179.266 45.6393C179.043 45.4051 178.87 45.1267 178.76 44.8219C178.635 44.4923 178.574 44.142 178.578 43.7894C178.574 43.4346 178.634 43.0821 178.754 42.7486C178.865 42.4458 179.039 42.1704 179.264 41.9414C179.49 41.7124 179.762 41.5352 180.062 41.4218C180.398 41.2948 180.754 41.232 181.113 41.2366C181.294 41.2367 181.475 41.2513 181.654 41.2802C181.814 41.3069 181.971 41.3498 182.123 41.4082C182.262 41.4592 182.395 41.525 182.521 41.6044C182.644 41.6842 182.759 41.7754 182.865 41.8768L182.675 42.1819C182.66 42.2102 182.638 42.234 182.611 42.2508C182.584 42.2675 182.553 42.2767 182.521 42.2773C182.478 42.2749 182.438 42.2617 182.402 42.2392C182.342 42.2065 182.28 42.1656 182.207 42.1193C182.121 42.0665 182.03 42.0219 181.936 41.9858C181.819 41.9384 181.697 41.9019 181.573 41.8768C181.409 41.8441 181.242 41.8286 181.075 41.8305C180.816 41.8267 180.56 41.8739 180.319 41.9694C180.099 42.0546 179.901 42.1887 179.74 42.3618C179.577 42.5403 179.453 42.7509 179.374 42.9802C179.285 43.243 179.241 43.5196 179.245 43.7975C179.24 44.0849 179.286 44.3707 179.38 44.6421C179.46 44.8747 179.587 45.0881 179.754 45.2687C179.915 45.4392 180.111 45.5738 180.328 45.6638C180.567 45.758 180.823 45.8033 181.08 45.7973Z" fill="#006699"/>
<path d="M109.994 71.248C110.155 71.2516 110.314 71.2219 110.463 71.1608C110.595 71.1041 110.713 71.0196 110.809 70.9129C110.907 70.8021 110.981 70.6722 111.026 70.5314C111.079 70.3744 111.104 70.2095 111.102 70.0438V67.4746H111.668V70.0438C111.67 70.276 111.631 70.5069 111.551 70.7249C111.479 70.9269 111.366 71.1122 111.221 71.2698C111.068 71.4275 110.884 71.5501 110.679 71.6294C110.231 71.8037 109.734 71.8037 109.285 71.6294C109.087 71.5488 108.908 71.4271 108.759 71.2722C108.611 71.1173 108.497 70.9326 108.424 70.7303C108.344 70.5123 108.305 70.2815 108.308 70.0492V67.4801H108.873V70.0465C108.871 70.2122 108.897 70.3771 108.949 70.5342C108.995 70.675 109.068 70.8048 109.166 70.9156C109.263 71.0229 109.382 71.1076 109.515 71.1635C109.667 71.2254 109.831 71.2542 109.994 71.248Z" fill="#6B6B6B"/>
<path d="M115.97 68.137C115.955 68.1621 115.936 68.1843 115.913 68.2024C115.891 68.2185 115.865 68.2262 115.837 68.2242C115.795 68.2203 115.754 68.2032 115.721 68.1751C115.667 68.1351 115.611 68.0978 115.553 68.0634C115.476 68.0177 115.395 67.9811 115.309 67.9544C115.199 67.9169 115.082 67.8993 114.966 67.9027C114.852 67.9015 114.738 67.919 114.63 67.9544C114.539 67.9849 114.456 68.033 114.383 68.0961C114.319 68.1526 114.269 68.2235 114.237 68.3032C114.202 68.3848 114.185 68.473 114.186 68.562C114.183 68.6669 114.213 68.77 114.272 68.8562C114.336 68.9369 114.414 69.0044 114.503 69.0551C114.605 69.113 114.713 69.1604 114.825 69.1968L115.193 69.3221C115.32 69.3657 115.442 69.4147 115.564 69.4692C115.68 69.5217 115.789 69.5905 115.886 69.6736C115.982 69.7581 116.06 69.8621 116.114 69.9787C116.176 70.1171 116.206 70.2682 116.2 70.4201C116.206 70.5935 116.178 70.7665 116.119 70.9295C116.061 71.0894 115.968 71.2344 115.848 71.3545C115.721 71.4739 115.571 71.5665 115.407 71.627C115.215 71.6975 115.013 71.7316 114.809 71.7278C114.554 71.7312 114.301 71.6811 114.067 71.5807C113.851 71.4858 113.656 71.3488 113.493 71.1774L113.658 70.905C113.674 70.8842 113.693 70.8658 113.715 70.8505C113.737 70.836 113.764 70.8284 113.791 70.8287C113.843 70.8339 113.892 70.8581 113.929 70.8968C113.993 70.9487 114.06 70.9969 114.129 71.0412C114.219 71.1006 114.315 71.1499 114.416 71.1883C114.667 71.2682 114.937 71.2682 115.188 71.1883C115.288 71.1548 115.38 71.1011 115.458 71.0303C115.532 70.9623 115.589 70.8785 115.626 70.7851C115.668 70.6851 115.688 70.5775 115.686 70.4691C115.689 70.3582 115.659 70.2489 115.599 70.1558C115.539 70.0715 115.462 70.0017 115.372 69.9515C115.265 69.9005 115.152 69.863 115.036 69.8397L114.665 69.7226C114.541 69.6817 114.416 69.6354 114.297 69.5836C114.179 69.5319 114.071 69.462 113.975 69.3766C113.877 69.288 113.799 69.1793 113.747 69.0578C113.685 68.9087 113.656 68.748 113.661 68.5865C113.661 68.4378 113.691 68.2907 113.747 68.1533C113.805 68.0136 113.89 67.8874 113.999 67.7828C114.115 67.6687 114.253 67.5804 114.405 67.524C114.578 67.4573 114.762 67.4241 114.947 67.4259C115.166 67.4234 115.383 67.4612 115.588 67.5376C115.778 67.6085 115.951 67.719 116.095 67.8618L115.97 68.137Z" fill="#6B6B6B"/>
<path d="M121.556 71.7029H121.115C121.071 71.7057 121.027 71.6922 120.993 71.6648C120.961 71.6394 120.936 71.6054 120.922 71.5667L120.53 70.5478H118.634L118.242 71.5667C118.228 71.6045 118.203 71.6376 118.171 71.6621C118.137 71.69 118.094 71.7045 118.05 71.7029H117.608L119.29 67.4746H119.866L121.556 71.7029ZM118.802 70.1337H120.37L119.712 68.4145C119.661 68.2841 119.618 68.1503 119.585 68.014C119.563 68.0958 119.541 68.1693 119.523 68.2374C119.504 68.3056 119.482 68.3655 119.463 68.4173L118.802 70.1337Z" fill="#6B6B6B"/>
<path d="M47.6 69.5879H102.871" stroke="#6B6B6B" stroke-width="0.6" stroke-miterlimit="10"/>
<path d="M127.732 69.5879H183" stroke="#6B6B6B" stroke-width="0.6" stroke-miterlimit="10"/>
<path d="M37.663 38.7822H32.3805V33.4641C32.3805 33.3788 32.3468 33.297 32.2869 33.2367C32.227 33.1764 32.1457 33.1426 32.061 33.1426H25.6249C25.5402 33.1426 25.4589 33.1764 25.399 33.2367C25.3391 33.297 25.3054 33.3788 25.3054 33.4641V38.7822H20.0229C19.9381 38.7822 19.8569 38.816 19.7969 38.8763C19.737 38.9366 19.7034 39.0184 19.7034 39.1037V45.5796C19.7034 45.6219 19.7116 45.6637 19.7277 45.7027C19.7437 45.7417 19.7673 45.7771 19.7969 45.807C19.8266 45.8368 19.8618 45.8605 19.9006 45.8767C19.9394 45.8928 19.9809 45.9011 20.0229 45.9011H25.3054V51.2165C25.3054 51.3018 25.3391 51.3835 25.399 51.4438C25.4589 51.5041 25.5402 51.538 25.6249 51.538H32.061C32.1457 51.538 32.227 51.5041 32.2869 51.4438C32.3468 51.3835 32.3805 51.3018 32.3805 51.2165V45.8984H37.663C37.7478 45.8984 37.829 45.8645 37.8889 45.8042C37.9489 45.744 37.9825 45.6622 37.9825 45.5769V39.1009C37.9818 39.0161 37.9478 38.9351 37.888 38.8754C37.8282 38.8157 37.7473 38.7822 37.663 38.7822Z" fill="#006699"/>
<path d="M21.9182 28.1389H19.457V25.6596C19.457 25.6399 19.4531 25.6204 19.4456 25.6023C19.4382 25.5841 19.4272 25.5676 19.4134 25.5537C19.3995 25.5397 19.3831 25.5287 19.365 25.5212C19.347 25.5136 19.3276 25.5098 19.3081 25.5098H16.2999C16.2604 25.5098 16.2225 25.5256 16.1946 25.5537C16.1667 25.5818 16.151 25.6199 16.151 25.6596V28.1389H13.687C13.6475 28.1389 13.6097 28.1546 13.5817 28.1827C13.5538 28.2108 13.5381 28.249 13.5381 28.2887V31.3128C13.5381 31.3526 13.5538 31.3907 13.5817 31.4188C13.6097 31.4469 13.6475 31.4627 13.687 31.4627H16.151V33.9419C16.151 33.9817 16.1667 34.0198 16.1946 34.0479C16.2225 34.076 16.2604 34.0918 16.2999 34.0918H19.3026C19.3421 34.0918 19.38 34.076 19.4079 34.0479C19.4359 34.0198 19.4516 33.9817 19.4516 33.9419V31.4627H21.9182C21.9577 31.4627 21.9956 31.4469 22.0235 31.4188C22.0514 31.3907 22.0671 31.3526 22.0671 31.3128V28.2887C22.0671 28.249 22.0514 28.2108 22.0235 28.1827C21.9956 28.1546 21.9577 28.1389 21.9182 28.1389Z" fill="#006699"/>
<path d="M45.6018 36.8146H44.0259V35.2399C44.0259 35.2146 44.0159 35.1903 43.9982 35.1725C43.9804 35.1546 43.9563 35.1445 43.9312 35.1445H42.0115C41.9863 35.1445 41.9622 35.1546 41.9445 35.1725C41.9267 35.1903 41.9167 35.2146 41.9167 35.2399V36.8255H40.3409C40.3157 36.8255 40.2916 36.8356 40.2738 36.8534C40.2561 36.8713 40.2461 36.8956 40.2461 36.9209V38.8525C40.2461 38.8778 40.2561 38.902 40.2738 38.9199C40.2916 38.9378 40.3157 38.9479 40.3409 38.9479H41.9302V40.5308C41.9302 40.5563 41.9401 40.5808 41.9578 40.5992C41.9755 40.6175 41.9996 40.6281 42.025 40.6288H43.9447C43.9701 40.6281 43.9942 40.6175 44.0119 40.5992C44.0296 40.5808 44.0395 40.5563 44.0395 40.5308V38.9479H45.6153C45.6404 38.9479 45.6645 38.9378 45.6823 38.9199C45.7001 38.902 45.7101 38.8778 45.7101 38.8525V36.9209C45.7119 36.9062 45.7104 36.8914 45.7055 36.8774C45.7007 36.8635 45.6927 36.8509 45.6822 36.8406C45.6717 36.8303 45.659 36.8226 45.645 36.8181C45.6311 36.8136 45.6163 36.8124 45.6018 36.8146Z" fill="#006699"/>
<path d="M36.672 27.1957H35.7622V26.283C35.7622 26.2686 35.7565 26.2547 35.7464 26.2445C35.7362 26.2343 35.7225 26.2285 35.7081 26.2285H34.6007C34.5863 26.2285 34.5725 26.2343 34.5624 26.2445C34.5522 26.2547 34.5465 26.2686 34.5465 26.283V27.1957H33.6395C33.6321 27.1953 33.6248 27.1965 33.6179 27.199C33.611 27.2016 33.6047 27.2056 33.5994 27.2107C33.5941 27.2158 33.5899 27.2219 33.587 27.2287C33.5841 27.2355 33.5826 27.2428 33.5826 27.2502V28.3645C33.5826 28.3719 33.5841 28.3792 33.587 28.386C33.5899 28.3928 33.5941 28.3989 33.5994 28.404C33.6047 28.4091 33.611 28.4131 33.6179 28.4156C33.6248 28.4182 33.6321 28.4193 33.6395 28.419H34.5465V29.3344C34.5465 29.3488 34.5522 29.3627 34.5624 29.3729C34.5725 29.3831 34.5863 29.3889 34.6007 29.3889H35.7027C35.717 29.3889 35.7308 29.3831 35.741 29.3729C35.7511 29.3627 35.7568 29.3488 35.7568 29.3344V28.4271H36.6666C36.681 28.4271 36.6947 28.4214 36.7049 28.4112C36.715 28.401 36.7207 28.3871 36.7207 28.3727V27.2584C36.7219 27.251 36.7215 27.2435 36.7196 27.2362C36.7178 27.229 36.7145 27.2223 36.7099 27.2164C36.7053 27.2105 36.6996 27.2056 36.6931 27.2021C36.6866 27.1985 36.6794 27.1963 36.672 27.1957Z" fill="#006699"/>
<path d="M71.9469 20.5282C72.021 21.815 71.9975 23.1056 71.8765 24.3887C71.7829 25.6721 71.5273 26.9383 71.1157 28.1566C71.2032 27.6481 71.2629 27.1352 71.2944 26.62C71.335 25.8786 71.335 25.1356 71.2944 24.3942C71.2267 23.1471 71.0784 21.9057 70.8503 20.678C70.4111 18.252 69.6554 15.895 68.603 13.6681C67.6016 11.5045 66.195 9.55547 64.4603 7.92766C63.6182 7.1471 62.6908 6.46526 61.6959 5.89523C60.7077 5.34353 59.6579 4.91187 58.5685 4.60929C58.2978 4.52756 58.027 4.45945 57.7427 4.39679C57.6046 4.36137 57.472 4.33957 57.3474 4.31505C57.2229 4.29053 57.0766 4.26056 56.9223 4.23332C56.3483 4.12707 55.7716 4.07803 55.1976 4.02899C54.068 3.94412 52.9331 3.96601 51.8076 4.09437C50.7148 4.21924 49.64 4.47064 48.6045 4.84359C47.581 5.20694 46.6025 5.6878 45.6884 6.27665C43.8465 7.50895 42.2526 9.08037 40.9907 10.9082C40.3352 11.8316 39.7514 12.8044 39.2443 13.8179C38.9924 14.3246 38.7461 14.8423 38.5294 15.3627C38.4184 15.6351 38.3182 15.8803 38.2208 16.1391L38.0854 16.5233C38.0448 16.6322 37.9906 16.7957 37.9798 16.842L37.2487 19.6945L34.2704 18.4794L33.9752 18.3595L33.6178 18.2206C33.3795 18.1307 33.1332 18.0408 32.884 17.9481C32.3858 17.782 31.8741 17.6267 31.3624 17.4904C30.3371 17.2092 29.2977 16.9827 28.2486 16.8121C26.1827 16.4699 24.0822 16.3912 21.9967 16.5778C20.984 16.6814 19.9791 16.8516 18.9885 17.0872C18.0196 17.3426 17.0718 17.6733 16.1537 18.0762C15.24 18.4865 14.3608 18.9703 13.5246 19.5229C13.3079 19.6536 13.1428 19.7953 12.9478 19.9234C12.7529 20.0514 12.5877 20.1658 12.3467 20.3702L11.6671 20.9287L11.5805 20.9995L11.5507 21.0186L11.4261 21.1357L11.1391 21.3918C8.12285 24.1599 6.09484 27.8052 5.63184 31.7774C5.39386 33.7888 5.50749 35.8265 5.96758 37.7984C6.44809 39.8315 7.21777 41.7842 8.25282 43.596C9.32176 45.4535 10.604 47.1781 12.0733 48.7343C13.5797 50.3165 15.2366 51.7464 17.0201 53.0035C18.8338 54.2861 20.7512 55.4135 22.7521 56.3737C23.7512 56.8641 24.7422 57.2782 25.8821 57.7577C27.022 58.2372 28.078 58.7385 29.1529 59.2697C31.311 60.3338 33.3808 61.5701 35.3426 62.9668C37.3145 64.352 39.157 65.915 40.8472 67.6365C42.5095 69.3658 43.9636 71.2861 45.1794 73.3578C45.7799 74.39 46.2978 75.4686 46.7281 76.5835C47.174 77.6811 47.4893 78.8279 47.6677 80C46.9556 77.7578 45.7317 75.7471 44.3481 73.9136C42.9609 72.0904 41.3651 70.438 39.5935 68.9905C37.851 67.5271 35.9774 66.2292 33.9969 65.1137C32.0152 64.0008 29.9619 63.0224 27.8506 62.1849C26.7946 61.768 25.7332 61.3676 24.6556 61.0243C23.578 60.681 22.4056 60.2887 21.2711 59.8419C18.9797 58.9682 16.772 57.8867 14.6753 56.6107C12.5421 55.3207 10.5524 53.8045 8.74019 52.0881C6.88697 50.3474 5.26274 48.3753 3.90708 46.2197C3.21704 45.127 2.60537 43.9862 2.07673 42.8059C1.55111 41.6054 1.11576 40.3668 0.774364 39.1007C0.0726826 36.5147 -0.154863 33.8216 0.102874 31.1535C0.373343 28.4572 1.15263 25.8376 2.39894 23.4352C3.64524 21.0709 5.28445 18.9387 7.24558 17.1308L7.6057 16.8012L7.78711 16.6295L8.02538 16.4306L8.70499 15.8857C8.90265 15.7087 9.22485 15.4825 9.49561 15.2836C9.76638 15.0848 10.0696 14.8505 10.3539 14.6788C11.4732 13.9469 12.6504 13.309 13.8738 12.7717C15.0947 12.2516 16.3539 11.828 17.6401 11.5048C18.9193 11.2009 20.2188 10.9915 21.5283 10.8782C24.0941 10.6874 26.6736 10.8265 29.2044 11.2923C30.4534 11.5172 31.6876 11.8184 32.9003 12.1941C33.2712 12.3031 33.6395 12.4257 34.005 12.551C34.2135 12.1315 34.4274 11.7146 34.6548 11.306C35.3399 10.0903 36.1175 8.92988 36.9807 7.83503C38.7127 5.57073 40.8792 3.67976 43.3517 2.27445C44.6038 1.56697 45.9379 1.01792 47.3238 0.639783C48.6928 0.271642 50.099 0.061417 51.5152 0.0131616C52.9017 -0.0365685 54.2896 0.0547092 55.6579 0.285606C56.3293 0.402757 57.0117 0.538978 57.6534 0.702445C57.7942 0.737862 57.9702 0.784178 58.1435 0.835943C58.3167 0.887707 58.4982 0.931298 58.6633 0.985787C58.9936 1.08932 59.3267 1.19829 59.6516 1.32089C62.2552 2.28728 64.5859 3.8769 66.4423 5.95244C68.213 7.98497 69.574 10.3445 70.4496 12.8998C71.3076 15.3577 71.8118 17.9266 71.9469 20.5282Z" fill="#00A79D"/>
<path d="M71.3025 24.3806C71.2348 23.1335 71.0865 21.8921 70.8585 20.6644C70.4192 18.2384 69.6636 15.8814 68.6111 13.6544C67.6097 11.4909 66.2032 9.54186 64.4685 7.91404C63.6232 7.13774 62.693 6.46047 61.6959 5.89524C60.7077 5.34354 59.6579 4.91187 58.5686 4.6093C58.2978 4.52757 58.0271 4.45946 57.7428 4.39679C57.6047 4.36138 57.472 4.33958 57.3474 4.31506C57.2229 4.29054 57.0767 4.26057 56.9223 4.23333C56.3483 4.12707 55.7716 4.07803 55.1976 4.02899C54.0681 3.94413 52.9331 3.96602 51.8076 4.09438C50.7148 4.21924 49.64 4.47065 48.6045 4.8436C47.581 5.20695 46.6025 5.68781 45.6884 6.27666C43.8465 7.50895 42.2527 9.08037 40.9907 10.9082C40.3353 11.8316 39.7514 12.8044 39.2443 13.8179C38.9925 14.3247 38.7461 14.8423 38.5295 15.3627C38.4185 15.6351 38.3183 15.8803 38.2208 16.1391L38.0854 16.5233C38.0448 16.6323 37.9907 16.7957 37.9798 16.842L37.2488 19.6945L34.2704 18.4794L33.9753 18.3595L33.6178 18.2206C33.3796 18.1307 33.1332 18.0408 32.8841 17.9482C32.3859 17.782 31.8741 17.6267 31.3624 17.4905C30.3371 17.2092 29.2977 16.9827 28.2486 16.8121C26.1827 16.4699 24.0822 16.3912 21.9967 16.5778C20.984 16.6814 19.9792 16.8516 18.9886 17.0872C18.0196 17.3426 17.0718 17.6733 16.1537 18.0762C15.2401 18.4865 14.3609 18.9703 13.5246 19.5229C13.308 19.6537 13.1428 19.7953 12.9479 19.9234C12.7529 20.0514 12.5878 20.1659 12.3468 20.3702L11.6672 20.9287L11.5805 20.9995L11.5507 21.0186L11.4262 21.1358L11.1392 21.3919C8.12288 24.1599 6.09487 27.8052 5.63187 31.7774C5.39389 33.7888 5.50752 35.8265 5.96762 37.7984C6.44812 39.8316 7.2178 41.7842 8.25285 43.596C9.32179 45.4536 10.6041 47.1782 12.0733 48.7343C13.5797 50.3165 15.2366 51.7464 17.0201 53.0035C18.8338 54.2861 20.7512 55.4135 22.7522 56.3737C23.7513 56.8641 24.7423 57.2782 25.8822 57.7577C27.0221 58.2372 28.0781 58.7385 29.153 59.2698C31.311 60.3338 33.3808 61.5701 35.3426 62.9668C37.3145 64.352 39.157 65.9151 40.8472 67.6365C42.5096 69.3658 43.9637 71.2861 45.1794 73.3578C45.7799 74.39 46.2978 75.4687 46.7281 76.5836C47.174 77.6812 47.4894 78.8279 47.6677 80C47.6677 80 44.34 69.5273 35.1314 64.1792C25.7712 58.7303 12.8396 55.5918 7.11023 46.157C0.492806 35.2593 1.71665 23.3752 12.2764 16.7331C22.8361 10.0909 35.2532 15.6242 35.2532 15.6242C35.2532 15.6242 39.2687 3.73203 50.9575 2.0674C62.3051 0.446354 72.8892 10.2135 71.2863 26.601C71.3321 25.8617 71.3375 25.1204 71.3025 24.3806Z" fill="#007267"/>
</g>
<defs>
<clipPath id="clip0_835_30">
<rect width="183" height="80" fill="white"/>
</clipPath>
</defs>
</svg>
